<svg width="83" height="43" viewBox="0 0 83 43" fill="none" xmlns="http://www.w3.org/2000/svg">
<path d="M22.5501 11.8496C22.5834 11.9496 22.5668 12.0163 22.5001 12.0496C22.4668 12.0496 22.4334 12.0829 22.4001 12.1496C22.9334 12.6496 23.3834 13.1163 23.7501 13.5496C23.8834 13.9163 23.9834 14.2996 24.0501 14.6996C24.1168 15.0663 24.2501 15.4163 24.4501 15.7496C24.4168 16.1496 24.3834 16.4996 24.3501 16.7996C24.3168 17.0663 24.3501 17.3663 24.4501 17.6996C24.3834 18.1329 24.2834 18.5663 24.1501 18.9996C24.0168 19.4329 23.9834 19.8496 24.0501 20.2496C23.8501 20.2829 23.7501 20.4329 23.7501 20.6996C23.7834 20.9329 23.7668 21.1329 23.7001 21.2996C24.0334 21.2329 24.3001 21.0663 24.5001 20.7996C24.7001 20.5329 24.9168 20.2996 25.1501 20.0996C25.3168 19.8329 25.5334 19.5996 25.8001 19.3996C26.0668 19.0663 26.3001 18.7663 26.5001 18.4996C26.7334 18.2329 27.0001 17.9329 27.3001 17.5996C27.4668 17.4329 27.6334 17.2663 27.8001 17.0996C28.0001 16.8996 28.1334 16.6663 28.2001 16.3996C28.8001 15.8329 29.3168 15.2163 29.7501 14.5496C30.2168 13.8829 30.7834 13.3163 31.4501 12.8496C31.6168 12.4496 31.8334 12.0996 32.1001 11.7996C32.4001 11.4996 32.7168 11.2163 33.0501 10.9496C33.1501 10.5163 33.3334 10.1829 33.6001 9.94961C33.9001 9.68294 34.1834 9.41628 34.4501 9.14961C34.7834 8.38294 35.2501 7.76627 35.8501 7.29961C36.4501 6.83294 36.9668 6.28294 37.4001 5.64961C37.6334 5.58294 37.8001 5.46627 37.9001 5.29961C38.0001 5.13294 38.1501 5.03294 38.3501 4.99961C38.3834 4.83294 38.4501 4.66628 38.5501 4.49961C38.6834 4.29961 38.8668 4.16627 39.1001 4.09961C39.1668 3.89961 39.2668 3.74961 39.4001 3.64961C39.5668 3.51627 39.6834 3.36627 39.7501 3.19961C39.8168 3.19961 39.8501 3.18294 39.8501 3.14961C39.8834 3.08294 39.9501 3.06627 40.0501 3.09961C40.4168 2.53294 40.8668 2.09961 41.4001 1.79961C41.9334 1.49961 42.3834 1.11627 42.7501 0.649608C43.0168 0.516274 43.3001 0.432941 43.6001 0.399608C43.9001 0.366275 44.1334 0.316275 44.3001 0.249607C44.7668 0.249607 45.1834 0.166273 45.5501 -0.000393033C45.8834 0.0996077 46.2168 0.199608 46.5501 0.299609C46.9168 0.399608 47.2334 0.516274 47.5001 0.649608C47.6001 0.749608 47.7001 0.866275 47.8001 0.999609C47.9001 1.09961 48.0334 1.18294 48.2001 1.24961C48.2668 1.51627 48.3668 1.66627 48.5001 1.69961C48.6334 1.69961 48.7501 1.78294 48.8501 1.94961C49.0834 2.31627 49.1668 2.73294 49.1001 3.19961C49.0668 3.66627 49.1834 4.04961 49.4501 4.34961C49.2834 4.68294 49.1834 5.04961 49.1501 5.44961C49.1168 5.84961 49.0668 6.21627 49.0001 6.54961C48.8334 6.81627 48.6668 7.11627 48.5001 7.44961C48.3334 7.78294 48.2668 8.13294 48.3001 8.49961C47.8001 9.49961 47.3001 10.5163 46.8001 11.5496C46.3334 12.5829 45.8834 13.6329 45.4501 14.6996C45.2834 14.9663 45.1001 15.2329 44.9001 15.4996C44.7334 15.7663 44.6168 16.0663 44.5501 16.3996C44.5501 16.3996 44.5001 16.3996 44.4001 16.3996C44.3334 16.8663 44.1668 17.2663 43.9001 17.5996C43.6668 17.8996 43.5001 18.2829 43.4001 18.7496C43.3334 18.7829 43.2834 18.8329 43.2501 18.8996C43.2501 18.9663 43.2168 18.9996 43.1501 18.9996C43.0834 19.5329 42.9001 20.0163 42.6001 20.4496C42.3334 20.8829 42.1168 21.3829 41.9501 21.9496C41.6834 22.3829 41.4668 22.8996 41.3001 23.4996C41.1334 24.0663 40.8834 24.5496 40.5501 24.9496C40.4501 25.3163 40.3168 25.6663 40.1501 25.9996C40.0168 26.2996 39.8668 26.6163 39.7001 26.9496C39.5668 27.2496 39.4168 27.5663 39.2501 27.8996C39.1168 28.1996 39.0168 28.5496 38.9501 28.9496C38.6834 29.2163 38.4668 29.5829 38.3001 30.0496C38.1334 30.4829 38.0168 30.8829 37.9501 31.2496C37.8834 31.3496 37.8168 31.4496 37.7501 31.5496C37.6834 31.6163 37.6168 31.6829 37.5501 31.7496C37.5168 32.1829 37.3668 32.5496 37.1001 32.8496C36.8668 33.1163 36.7001 33.4163 36.6001 33.7496C36.5668 33.7829 36.5501 33.8496 36.5501 33.9496C36.5834 34.0163 36.6001 34.0829 36.6001 34.1496C36.5001 34.5163 36.3334 34.8496 36.1001 35.1496C35.8668 35.4163 35.6668 35.7329 35.5001 36.0996C35.2001 36.8996 34.8334 37.6163 34.4001 38.2496C33.9668 38.8829 33.5834 39.5829 33.2501 40.3496C33.0834 40.3496 32.9834 40.3996 32.9501 40.4996C32.9168 40.5996 32.8168 40.6496 32.6501 40.6496C32.5501 40.5496 32.5168 40.4663 32.5501 40.3996C32.6168 40.3663 32.6501 40.2829 32.6501 40.1496C32.6168 40.1496 32.5501 40.1329 32.4501 40.0996C32.3834 40.0996 32.3168 40.0663 32.2501 39.9996C32.1834 40.0996 32.0834 40.1829 31.9501 40.2496C31.8501 40.3496 31.7501 40.4329 31.6501 40.4996C31.4834 40.4996 31.4168 40.4496 31.4501 40.3496C31.3501 40.5163 31.2168 40.6329 31.0501 40.6996C30.9168 40.7663 30.8501 40.9163 30.8501 41.1496C30.4834 41.2496 30.3501 41.4996 30.4501 41.8996C30.3168 42.0329 30.1334 42.0996 29.9001 42.0996C29.8001 41.9996 29.7668 41.8496 29.8001 41.6496C29.7001 41.5163 29.5334 41.4496 29.3001 41.4496C29.2001 41.4163 29.1501 41.4329 29.1501 41.4996C29.1501 41.5996 29.1168 41.6496 29.0501 41.6496C28.9834 41.6496 28.9334 41.5996 28.9001 41.4996C28.9001 41.4329 28.8501 41.4163 28.7501 41.4496C28.6834 40.9163 28.7168 40.5163 28.8501 40.2496C29.0168 39.9829 29.0834 39.6329 29.0501 39.1996C29.0834 39.0996 29.1168 39.0663 29.1501 39.0996C29.2168 39.1329 29.2668 39.1163 29.3001 39.0496C29.3001 38.9496 29.2668 38.8996 29.2001 38.8996C29.1334 38.9329 29.1168 38.9163 29.1501 38.8496C29.2168 38.1163 29.3334 37.4329 29.5001 36.7996C29.7001 36.1663 29.7668 35.5329 29.7001 34.8996C29.6668 34.7329 29.6834 34.5329 29.7501 34.2996C29.8501 34.0663 29.9001 33.8163 29.9001 33.5496C29.9001 32.3829 30.0834 31.3663 30.4501 30.4996C30.4834 30.4329 30.4834 30.3663 30.4501 30.2996C30.4501 30.2329 30.4501 30.1663 30.4501 30.0996C30.4834 29.9663 30.5168 29.7829 30.5501 29.5496C30.5834 29.3163 30.5668 29.1663 30.5001 29.0996C30.8668 28.2663 31.0834 27.4163 31.1501 26.5496C31.2501 25.6829 31.4501 24.8329 31.7501 23.9996C31.2501 24.6663 30.7334 25.3996 30.2001 26.1996C29.6668 26.9663 29.0501 27.6496 28.3501 28.2496C28.3834 28.3163 28.3834 28.3663 28.3501 28.3996C28.3168 28.4329 28.3001 28.4829 28.3001 28.5496C28.0334 28.8163 27.7334 29.0829 27.4001 29.3496C27.0668 29.6163 26.9001 29.9663 26.9001 30.3996C26.6334 30.5329 26.3834 30.7329 26.1501 30.9996C25.9168 31.2329 25.7668 31.4996 25.7001 31.7996C25.5334 31.6996 25.4001 31.7663 25.3001 31.9996C25.2001 32.1996 25.1001 32.3663 25.0001 32.4996C24.8668 32.6663 24.6501 32.8829 24.3501 33.1496C24.0501 33.3829 23.7834 33.5996 23.5501 33.7996C23.4834 34.0663 23.4334 34.2163 23.4001 34.2496C23.2001 34.4829 23.0001 34.6329 22.8001 34.6996C22.6001 34.7663 22.4334 34.9163 22.3001 35.1496C21.9334 35.2829 21.5501 35.3829 21.1501 35.4496C20.7834 35.5163 20.4501 35.6329 20.1501 35.7996C19.8834 35.8663 19.6501 35.8496 19.4501 35.7496C19.2834 35.6496 19.0668 35.5663 18.8001 35.4996C18.5668 35.3996 18.4334 35.3329 18.4001 35.2996C18.3668 35.2663 18.2668 35.1329 18.1001 34.8996C17.9334 34.7329 17.7668 34.5663 17.6001 34.3996C17.4334 34.2329 17.2834 34.0329 17.1501 33.7996C16.7834 33.8663 16.5001 33.8829 16.3001 33.8496C16.1334 33.7829 15.9501 33.6996 15.7501 33.5996C15.6834 33.1663 15.5834 32.7996 15.4501 32.4996C15.3168 32.1663 15.1668 31.7829 15.0001 31.3496C14.9001 31.3163 14.8001 31.3496 14.7001 31.4496C14.6334 31.5496 14.5501 31.5663 14.4501 31.4996C14.4168 31.3663 14.3834 31.1829 14.3501 30.9496C14.3501 30.7163 14.3334 30.4829 14.3001 30.2496C14.3001 29.9829 14.2668 29.7329 14.2001 29.4996C14.1668 29.2663 14.0834 29.0829 13.9501 28.9496C13.9168 28.2829 13.9668 27.6996 14.1001 27.1996C14.2668 26.6663 14.4168 26.0829 14.5501 25.4496C13.7834 26.0829 13.0168 26.8163 12.2501 27.6496C11.5168 28.4829 10.7501 29.2329 9.9501 29.8996C9.7501 30.2329 9.51676 30.5496 9.2501 30.8496C9.01676 31.1163 8.73343 31.3496 8.4001 31.5496C8.23343 31.8163 8.0501 32.0663 7.8501 32.2996C7.68343 32.4996 7.43343 32.6829 7.1001 32.8496C7.06676 32.9496 7.01676 33.0163 6.9501 33.0496C6.88343 33.0829 6.83343 33.1663 6.8001 33.2996C6.56676 33.1996 6.38343 33.2496 6.2501 33.4496C6.11676 33.6163 6.01676 33.8163 5.9501 34.0496C5.48343 34.1163 5.13343 34.3163 4.9001 34.6496C4.66676 34.9496 4.31676 35.1496 3.8501 35.2496C3.78343 35.2829 3.7501 35.3496 3.7501 35.4496C3.71676 35.5163 3.61676 35.5329 3.4501 35.4996C3.3501 35.5329 3.31676 35.5163 3.3501 35.4496C3.38343 35.3496 3.38343 35.2663 3.3501 35.1996C3.08343 35.2663 2.81676 35.3163 2.5501 35.3496C2.2501 35.3829 2.01676 35.4163 1.8501 35.4496C1.71676 35.4163 1.6501 35.3163 1.6501 35.1496C1.3501 35.2496 1.06676 35.2329 0.800097 35.0996C0.500097 34.9663 0.250097 34.7829 0.0500976 34.5496C0.150098 34.1829 0.166764 33.8496 0.100098 33.5496C0.0334309 33.2496 0.150097 33.0163 0.450097 32.8496C0.450097 32.7829 0.483431 32.7329 0.550097 32.6996C0.583431 32.6663 0.583431 32.5996 0.550097 32.4996C1.0501 32.0329 1.4501 31.4496 1.7501 30.7496C2.01676 30.0163 2.4001 29.4163 2.9001 28.9496C2.9001 28.8496 2.91676 28.7829 2.9501 28.7496C2.98343 28.7163 2.96676 28.6663 2.9001 28.5996C3.13343 28.2329 3.4001 27.8663 3.7001 27.4996C3.96676 27.0996 4.23343 26.7663 4.5001 26.4996C4.56676 26.4329 4.6501 26.3496 4.7501 26.2496C4.81676 26.1163 4.86676 25.9829 4.9001 25.8496C4.93343 25.7829 4.98343 25.7496 5.0501 25.7496C5.08343 25.7496 5.13343 25.7329 5.2001 25.6996C5.5001 25.3329 5.81676 25.0163 6.1501 24.7496C6.4501 24.4496 6.71676 24.1163 6.9501 23.7496C7.18343 23.6829 7.36676 23.5663 7.5001 23.3996C7.63343 23.1996 7.8001 23.0496 8.0001 22.9496C8.7001 22.1163 9.4001 21.3163 10.1001 20.5496C10.8001 19.7829 11.4834 18.9829 12.1501 18.1496C12.7168 17.4163 13.3334 16.7496 14.0001 16.1496C14.7001 15.5163 15.3668 14.8663 16.0001 14.1996C16.0668 14.1329 16.0834 14.0996 16.0501 14.0996C16.0501 14.0663 16.0668 14.0329 16.1001 13.9996C16.2668 13.8996 16.3834 13.8163 16.4501 13.7496C16.5168 13.6829 16.6334 13.6163 16.8001 13.5496C16.8668 13.2163 17.0334 12.9829 17.3001 12.8496C17.5668 12.7163 17.7834 12.5163 17.9501 12.2496C18.7168 11.8829 19.4334 11.7163 20.1001 11.7496C20.7668 11.7829 21.5834 11.8163 22.5501 11.8496ZM2.1001 35.1496C2.1001 34.9829 2.03343 34.8996 1.9001 34.8996C1.93343 34.9663 1.9501 35.0163 1.9501 35.0496C1.91676 35.0829 1.9001 35.1329 1.9001 35.1996C1.96676 35.2329 2.0001 35.2329 2.0001 35.1996C2.0001 35.1663 2.03343 35.1496 2.1001 35.1496ZM13.1001 26.3496C13.0334 26.4163 12.9501 26.4829 12.8501 26.5496C12.7501 26.6163 12.7001 26.6996 12.7001 26.7996C12.8001 26.7663 12.8834 26.6996 12.9501 26.5996C13.0501 26.4996 13.1001 26.4163 13.1001 26.3496ZM33.0501 39.7996C33.0168 39.6996 33.0334 39.6496 33.1001 39.6496C33.1668 39.6496 33.2001 39.6163 33.2001 39.5496C33.1334 39.5163 33.0668 39.4663 33.0001 39.3996C32.9668 39.3663 32.8834 39.3829 32.7501 39.4496V39.5996C32.8168 39.6663 32.8668 39.6996 32.9001 39.6996C32.9668 39.6996 33.0168 39.7329 33.0501 39.7996ZM37.0122 17.8496C37.0789 17.6829 37.1955 17.5663 37.3622 17.4996C37.5289 17.4329 37.6789 17.3496 37.8122 17.2496C37.8789 17.2163 37.9455 17.1663 38.0122 17.0996C38.0789 17.0329 38.1455 16.9663 38.2122 16.8996C38.3789 16.8329 38.5455 16.7829 38.7122 16.7496C38.8455 16.7163 38.9455 16.5996 39.0122 16.3996C39.0122 16.4663 39.0622 16.4996 39.1622 16.4996C39.2289 16.4663 39.2622 16.4996 39.2622 16.5996C39.5289 16.4663 39.8289 16.3496 40.1622 16.2496C40.4955 16.1496 40.8289 16.0496 41.1622 15.9496C41.1955 15.8829 41.2622 15.7996 41.3622 15.6996C41.6955 15.6329 41.9789 15.5496 42.2122 15.4496C42.4455 15.3163 42.7122 15.2163 43.0122 15.1496C43.0455 15.1496 43.0622 15.0996 43.0622 14.9996C43.7622 14.9663 44.4122 14.8163 45.0122 14.5496C45.0122 14.4496 45.0455 14.3829 45.1122 14.3496C45.2122 14.3163 45.2955 14.2829 45.3622 14.2496C45.4289 14.2163 45.4955 14.1829 45.5622 14.1496C45.6289 14.0829 45.6622 13.9829 45.6622 13.8496C45.7289 13.8829 45.7789 13.8996 45.8122 13.8996C45.8455 13.8663 45.8955 13.8329 45.9622 13.7996C45.7955 13.7996 45.6289 13.7996 45.4622 13.7996C45.3289 13.7663 45.2289 13.6829 45.1622 13.5496C44.7955 13.5829 44.4455 13.6329 44.1122 13.6996C43.7789 13.7329 43.4455 13.8329 43.1122 13.9996C43.0455 13.7996 42.9622 13.6996 42.8622 13.6996C42.8289 13.7329 42.8122 13.7829 42.8122 13.8496C42.8455 13.8829 42.8455 13.9329 42.8122 13.9996C42.1122 14.2996 41.4122 14.5329 40.7122 14.6996C40.0122 14.8329 39.3122 15.0496 38.6122 15.3496C38.5789 15.1829 38.6122 15.0996 38.7122 15.0996C38.7789 15.0996 38.8122 15.0329 38.8122 14.8996C38.7122 14.9329 38.6455 14.9996 38.6122 15.0996C38.5789 15.1996 38.4955 15.2163 38.3622 15.1496C38.4955 14.8829 38.7122 14.6829 39.0122 14.5496C39.2789 14.3829 39.5955 14.2496 39.9622 14.1496C39.9955 14.0496 40.0122 13.8829 40.0122 13.6496C40.5455 13.2829 41.0955 13.0163 41.6622 12.8496C42.2289 12.6496 42.8122 12.4663 43.4122 12.2996C43.4789 12.2329 43.5122 12.1829 43.5122 12.1496C43.5122 12.0829 43.5455 12.0329 43.6122 11.9996C43.7789 11.9996 43.8622 12.0329 43.8622 12.0996C44.0289 11.9996 44.1622 11.8829 44.2622 11.7496C44.3955 11.5829 44.5122 11.4163 44.6122 11.2496C44.5455 11.1496 44.4455 11.1329 44.3122 11.1996C44.2122 11.2329 44.1122 11.2496 44.0122 11.2496C43.9122 11.1829 43.7789 11.1329 43.6122 11.0996C43.4789 11.0329 43.3289 11.0496 43.1622 11.1496C43.1622 11.0829 43.1789 11.0329 43.2122 10.9996C43.2789 10.9329 43.2955 10.8496 43.2622 10.7496C44.5289 10.4829 45.6122 10.1496 46.5122 9.74961C47.4122 9.34961 48.3955 9.01627 49.4622 8.74961C49.5289 8.71627 49.5622 8.71627 49.5622 8.74961C49.5622 8.78294 49.5789 8.81627 49.6122 8.84961C49.6122 8.78294 49.6289 8.74961 49.6622 8.74961C49.6955 8.71627 49.7289 8.66628 49.7622 8.59961C50.6289 8.56627 51.4622 8.39961 52.2622 8.09961C53.0955 7.79961 53.9455 7.64961 54.8122 7.64961C54.8789 7.61627 54.9122 7.56627 54.9122 7.49961C54.9455 7.43294 54.9955 7.36627 55.0622 7.29961C55.1622 7.29961 55.2289 7.33294 55.2622 7.39961C55.2955 7.43294 55.3455 7.43294 55.4122 7.39961C56.2122 7.13294 57.0622 6.96628 57.9622 6.89961C58.8622 6.79961 59.7122 6.51627 60.5122 6.04961C60.6789 6.11627 60.8289 6.13294 60.9622 6.09961C61.0955 6.06627 61.2455 6.03294 61.4122 5.99961C61.4455 5.96627 61.4622 5.93294 61.4622 5.89961C62.8289 5.63294 64.2455 5.34961 65.7122 5.04961C67.2122 4.74961 68.5955 4.59961 69.8622 4.59961C69.9289 4.56627 69.9789 4.53294 70.0122 4.49961C70.0455 4.43294 70.0955 4.36627 70.1622 4.29961C70.3622 4.39961 70.5789 4.44961 70.8122 4.44961C71.2122 4.41627 71.6122 4.39961 72.0122 4.39961C72.4455 4.36627 72.8955 4.34961 73.3622 4.34961C73.8955 4.34961 74.4289 4.31627 74.9622 4.24961C75.5289 4.18294 76.0789 4.18294 76.6122 4.24961C76.8122 4.31627 77.0622 4.33294 77.3622 4.29961C77.6622 4.26628 77.9455 4.28294 78.2122 4.34961C78.3789 4.18294 78.5289 4.13294 78.6622 4.19961C78.7955 4.26627 78.9455 4.36628 79.1122 4.49961C79.2122 4.49961 79.3289 4.46627 79.4622 4.39961C79.8289 4.56627 80.1289 4.79961 80.3622 5.09961C80.6289 5.36627 80.9122 5.59961 81.2122 5.79961C81.2122 5.89961 81.2455 5.96627 81.3122 5.99961C81.3789 6.03294 81.3955 6.09961 81.3622 6.19961C81.4622 6.23294 81.5455 6.29961 81.6122 6.39961C81.6789 6.49961 81.7455 6.61627 81.8122 6.74961C81.8789 6.84961 81.9455 6.96627 82.0122 7.09961C82.0789 7.19961 82.1789 7.26628 82.3122 7.29961C82.2455 7.36627 82.2455 7.44961 82.3122 7.54961C82.3789 7.61627 82.4289 7.69961 82.4622 7.79961C82.3955 7.99961 82.3289 8.09961 82.2622 8.09961C82.1955 8.03294 82.1289 7.96627 82.0622 7.89961C82.0289 7.83294 81.9789 7.76627 81.9122 7.69961C81.8455 7.73294 81.7789 7.78294 81.7122 7.84961C81.6789 7.88294 81.5955 7.93294 81.4622 7.99961C81.4622 8.06627 81.4955 8.09961 81.5622 8.09961C81.6289 8.09961 81.6622 8.13294 81.6622 8.19961C81.5289 8.33294 81.5122 8.46628 81.6122 8.59961C81.7122 8.73294 81.6789 8.84961 81.5122 8.94961C81.8122 9.24961 81.9455 9.61627 81.9122 10.0496C81.8455 10.0163 81.7622 9.99961 81.6622 9.99961C81.6622 10.0996 81.6789 10.1663 81.7122 10.1996C81.7789 10.2329 81.8122 10.2829 81.8122 10.3496C81.8122 10.6163 81.6955 10.7663 81.4622 10.7996C81.4622 10.8996 81.4789 10.9496 81.5122 10.9496C81.5789 10.9496 81.5789 10.9829 81.5122 11.0496C81.3455 11.0496 81.2455 11.0329 81.2122 10.9996C80.9122 11.1996 80.5789 11.2996 80.2122 11.2996C79.8789 11.2996 79.5455 11.3329 79.2122 11.3996C78.5789 11.4996 77.8955 11.6163 77.1622 11.7496C76.4622 11.8496 75.7289 11.9163 74.9622 11.9496C74.5622 11.9496 74.1455 11.9663 73.7122 11.9996C73.3122 11.9996 72.9289 11.9663 72.5622 11.8996C72.4955 11.9663 72.3622 11.9996 72.1622 11.9996C71.9955 11.9996 71.8455 11.9996 71.7122 11.9996C71.6789 11.9996 71.6622 12.0163 71.6622 12.0496C71.6622 12.0829 71.6455 12.0996 71.6122 12.0996C70.6789 12.1663 69.8122 12.2663 69.0122 12.3996C68.2455 12.5329 67.4289 12.6329 66.5622 12.6996C66.5289 12.7329 66.5122 12.7829 66.5122 12.8496C66.5122 12.8829 66.4789 12.9163 66.4122 12.9496C66.3455 12.8829 66.2955 12.8663 66.2622 12.8996C66.2289 12.8996 66.2122 12.8663 66.2122 12.7996C65.9455 13.3329 65.6789 13.8163 65.4122 14.2496C65.1455 14.6829 64.8789 15.1996 64.6122 15.7996C64.1789 16.3996 63.7622 16.9996 63.3622 17.5996C62.9955 18.1663 62.5955 18.7329 62.1622 19.2996C61.9955 19.6996 61.8122 20.0663 61.6122 20.3996C61.4455 20.7329 61.2789 21.0996 61.1122 21.4996C60.9455 21.6329 60.8289 21.8163 60.7622 22.0496C60.7289 22.2496 60.6289 22.4329 60.4622 22.5996C60.3622 22.6996 60.2622 22.7829 60.1622 22.8496C60.0955 22.8829 60.0289 22.9496 59.9622 23.0496C59.8622 23.1829 59.6789 23.4829 59.4122 23.9496C59.1789 24.4163 58.9122 24.9329 58.6122 25.4996C58.3122 26.0329 58.0289 26.5496 57.7622 27.0496C57.4955 27.5163 57.3122 27.8329 57.2122 27.9996C57.1455 28.1329 57.0122 28.4163 56.8122 28.8496C56.6455 29.2496 56.4455 29.6829 56.2122 30.1496C55.9789 30.6163 55.7455 31.0663 55.5122 31.4996C55.3122 31.8996 55.1789 32.1496 55.1122 32.2496C55.0455 32.2496 55.0122 32.2496 55.0122 32.2496C55.0122 32.2163 54.9789 32.2163 54.9122 32.2496C54.3455 32.9829 53.8622 33.8329 53.4622 34.7996C53.2955 34.9996 53.1289 35.2329 52.9622 35.4996C52.8289 35.7329 52.6789 35.9829 52.5122 36.2496C52.3455 36.4496 52.1622 36.6163 51.9622 36.7496C51.7955 36.8829 51.6289 37.0829 51.4622 37.3496C51.3955 37.4829 51.3289 37.6329 51.2622 37.7996C51.1955 37.9663 51.1289 38.1163 51.0622 38.2496C50.9622 38.4496 50.8289 38.6163 50.6622 38.7496C50.5289 38.8829 50.3789 39.0329 50.2122 39.1996C50.1455 39.2996 50.0789 39.3829 50.0122 39.4496C49.9789 39.5496 49.9122 39.5996 49.8122 39.5996C49.8122 39.6996 49.7789 39.7996 49.7122 39.8996C49.6455 39.9996 49.6289 40.0996 49.6622 40.1996C49.6622 40.1996 49.6289 40.2329 49.5622 40.2996C49.4955 40.3329 49.4622 40.3163 49.4622 40.2496C49.4622 40.2163 49.4289 40.1829 49.3622 40.1496C49.2955 40.3496 49.2455 40.5663 49.2122 40.7996C49.1789 41.0329 49.1122 41.2829 49.0122 41.5496C48.8122 41.6163 48.6122 41.5996 48.4122 41.4996C48.2122 41.4329 47.9789 41.4496 47.7122 41.5496C47.7789 41.2829 47.7455 41.0663 47.6122 40.8996C47.4789 40.7663 47.4622 40.5996 47.5622 40.3996C47.4955 40.3996 47.4455 40.4329 47.4122 40.4996C47.4122 40.5663 47.3789 40.5829 47.3122 40.5496C47.1455 40.4496 47.0122 40.3663 46.9122 40.2996C46.8122 40.2329 46.6789 40.2496 46.5122 40.3496C46.2789 40.1496 46.0789 39.9163 45.9122 39.6496C45.7455 39.4163 45.5122 39.2663 45.2122 39.1996C45.2122 39.0996 45.1955 39.0329 45.1622 38.9996C45.1289 38.9663 45.1289 38.8996 45.1622 38.7996C44.8622 38.7663 44.6622 38.6329 44.5622 38.3996C44.4622 38.1996 44.4122 37.9663 44.4122 37.6996C44.4455 37.4663 44.5122 37.2163 44.6122 36.9496C44.7122 36.6829 44.8289 36.4496 44.9622 36.2496C44.9955 36.1829 44.9955 36.1496 44.9622 36.1496C44.9289 36.1496 44.8955 36.0996 44.8622 35.9996C45.2289 35.0996 45.6289 34.2496 46.0622 33.4496C46.4955 32.6496 46.8955 31.8329 47.2622 30.9996C47.2622 30.9663 47.3122 30.7996 47.4122 30.4996C47.5455 30.1663 47.6789 29.8163 47.8122 29.4496C47.9789 29.0496 48.1289 28.6996 48.2622 28.3996C48.3955 28.0663 48.4622 27.8663 48.4622 27.7996C48.6289 27.6663 48.8455 27.3496 49.1122 26.8496C49.4122 26.3496 49.7122 25.7996 50.0122 25.1996C50.3122 24.5996 50.5955 24.0329 50.8622 23.4996C51.1289 22.9663 51.3122 22.5996 51.4122 22.3996C51.3789 22.1996 51.4622 21.9829 51.6622 21.7496C51.8622 21.5163 51.9955 21.2663 52.0622 20.9996C52.0955 20.9329 52.0955 20.8829 52.0622 20.8496C52.0622 20.7829 52.0789 20.7163 52.1122 20.6496C52.2789 20.2829 52.4955 19.9329 52.7622 19.5996C53.0289 19.2663 53.2622 18.9163 53.4622 18.5496C53.6289 18.2829 53.7455 18.0496 53.8122 17.8496C53.9122 17.6163 54.0455 17.4163 54.2122 17.2496C54.2122 17.1163 54.2122 17.0496 54.2122 17.0496C54.3455 16.9163 54.4455 16.7663 54.5122 16.5996C54.6122 16.3996 54.7122 16.2329 54.8122 16.0996C54.8789 16.0329 54.8789 15.9996 54.8122 15.9996C54.7455 15.9996 54.7122 15.9663 54.7122 15.8996C54.7789 15.7329 54.8455 15.6163 54.9122 15.5496C55.0122 15.4829 55.0955 15.3829 55.1622 15.2496C55.0955 15.1829 55.0455 15.1663 55.0122 15.1996C54.9789 15.1996 54.9122 15.1996 54.8122 15.1996V14.9496C53.9789 14.9829 53.1122 15.0663 52.2122 15.1996C51.3122 15.2996 50.3955 15.4329 49.4622 15.5996C49.3955 15.5996 49.3622 15.5496 49.3622 15.4496C49.0955 15.5163 48.8622 15.5663 48.6622 15.5996C48.4955 15.5996 48.2622 15.6163 47.9622 15.6496C47.6622 15.6829 47.3622 15.7663 47.0622 15.8996C46.7955 16.0329 46.5122 16.1329 46.2122 16.1996H45.8122C45.5122 16.2996 45.2289 16.3829 44.9622 16.4496C44.7289 16.4829 44.4789 16.5996 44.2122 16.7996C43.8789 16.7663 43.5622 16.8496 43.2622 17.0496C42.9622 17.2163 42.6789 17.2663 42.4122 17.1996C42.3122 17.2329 42.2455 17.2996 42.2122 17.3996C42.2122 17.4663 42.1955 17.5329 42.1622 17.5996C42.0622 17.5996 41.9455 17.5663 41.8122 17.4996C41.5789 17.5996 41.3122 17.6996 41.0122 17.7996C40.7122 17.8663 40.3955 17.8663 40.0622 17.7996C39.9289 17.8996 39.7622 17.9663 39.5622 17.9996C39.3622 18.0329 39.1789 18.0663 39.0122 18.0996C38.6122 18.1663 38.2789 18.1996 38.0122 18.1996C37.7122 18.1996 37.3789 18.1663 37.0122 18.0996C37.0455 18.0329 37.0455 17.9996 37.0122 17.9996C36.9789 17.9663 36.9789 17.9163 37.0122 17.8496ZM45.3122 13.1996C45.3455 13.2663 45.3289 13.2996 45.2622 13.2996C45.2289 13.2996 45.2122 13.3329 45.2122 13.3996C45.2789 13.3996 45.3289 13.3829 45.3622 13.3496C45.4289 13.2829 45.4122 13.2329 45.3122 13.1996ZM46.1622 33.9996C46.1289 33.8996 46.0955 33.8996 46.0622 33.9996C46.0289 34.0996 45.9955 34.1829 45.9622 34.2496C46.0289 34.2829 46.0622 34.2496 46.0622 34.1496C46.0622 34.0496 46.0955 33.9996 46.1622 33.9996ZM49.9622 38.9996C49.9289 38.9329 49.9455 38.8996 50.0122 38.8996C50.0789 38.8996 50.0789 38.8663 50.0122 38.7996C49.9455 38.7996 49.8955 38.8329 49.8622 38.8996C49.8622 38.9663 49.8955 38.9996 49.9622 38.9996ZM50.4122 38.6496C50.3789 38.7163 50.3289 38.7496 50.2622 38.7496C50.1955 38.7496 50.1789 38.7829 50.2122 38.8496C50.2789 38.8496 50.3289 38.8329 50.3622 38.7996C50.4289 38.7663 50.4455 38.7163 50.4122 38.6496ZM61.4122 20.1996C61.4122 20.3663 61.3622 20.4996 61.2622 20.5996C61.1955 20.6663 61.1789 20.7496 61.2122 20.8496C61.2455 20.7496 61.2955 20.6496 61.3622 20.5496C61.4622 20.4163 61.4789 20.2996 61.4122 20.1996Z" fill="white"/>
</svg>
